<svg width="32" height="32" viewBox="0 0 32 32" fill="none" xmlns="http://www.w3.org/2000/svg">
  <!-- 1970s Cyberpunk Cone with ray lines -->
  <defs>
    <linearGradient id="coneGrad" x1="50%" y1="0%" x2="50%" y2="100%">
      <stop offset="0%" style="stop-color:#00ff88;stop-opacity:1" />
      <stop offset="100%" style="stop-color:#00cc66;stop-opacity:1" />
    </linearGradient>
    <filter id="coneGlow">
      <feGaussianBlur stdDeviation="0.7" result="coloredBlur"/>
      <feMerge>
        <feMergeNode in="coloredBlur"/>
        <feMergeNode in="SourceGraphic"/>
      </feMerge>
    </filter>
  </defs>
  
  <!-- Cone body - left side -->
  <path d="M 16 6 L 8 24 L 16 22 Z" fill="#003322" stroke="url(#coneGrad)" stroke-width="1.5" filter="url(#coneGlow)"/>
  
  <!-- Cone body - right side -->
  <path d="M 16 6 L 24 24 L 16 22 Z" fill="#004433" stroke="url(#coneGrad)" stroke-width="1.5" filter="url(#coneGlow)"/>
  
  <!-- Base ellipse -->
  <ellipse cx="16" cy="23" rx="8" ry="2.5" fill="#002211" stroke="url(#coneGrad)" stroke-width="1.5" filter="url(#coneGlow)"/>
  
  <!-- Ray lines from apex -->
  <line x1="16" y1="6" x2="10" y2="18" stroke="#00ff88" stroke-width="0.4" opacity="0.4"/>
  <line x1="16" y1="6" x2="13" y2="20" stroke="#00ff88" stroke-width="0.4" opacity="0.4"/>
  <line x1="16" y1="6" x2="16" y2="22" stroke="#00ff88" stroke-width="0.4" opacity="0.5"/>
  <line x1="16" y1="6" x2="19" y2="20" stroke="#00ff88" stroke-width="0.4" opacity="0.4"/>
  <line x1="16" y1="6" x2="22" y2="18" stroke="#00ff88" stroke-width="0.4" opacity="0.4"/>
  
  <!-- Horizontal contour lines -->
  <line x1="12" y1="15" x2="20" y2="15" stroke="#00ff88" stroke-width="0.5" opacity="0.3"/>
  <line x1="10" y1="20" x2="22" y2="20" stroke="#00ff88" stroke-width="0.5" opacity="0.3"/>
  
  <!-- Apex highlight -->
  <circle cx="16" cy="6" r="1.5" fill="#00ff88" opacity="0.9"/>
  
  <!-- Tech brackets -->
  <path d="M 4 16 L 6 16 L 6 14" stroke="#00ff88" stroke-width="1" opacity="0.6" fill="none"/>
  <path d="M 28 16 L 26 16 L 26 14" stroke="#00ff88" stroke-width="1" opacity="0.6" fill="none"/>
</svg>
