<svg width="32" height="32" viewBox="0 0 32 32" fill="none" xmlns="http://www.w3.org/2000/svg">
  <!-- 1970s Cyberpunk Cube with scanlines and glow effect -->
  <defs>
    <linearGradient id="cubeGrad" x1="0%" y1="0%" x2="100%" y2="100%">
      <stop offset="0%" style="stop-color:#00ffff;stop-opacity:1" />
      <stop offset="100%" style="stop-color:#0099ff;stop-opacity:1" />
    </linearGradient>
    <filter id="glow">
      <feGaussianBlur stdDeviation="0.5" result="coloredBlur"/>
      <feMerge>
        <feMergeNode in="coloredBlur"/>
        <feMergeNode in="SourceGraphic"/>
      </feMerge>
    </filter>
  </defs>
  
  <!-- Back face -->
  <path d="M 8 12 L 16 8 L 24 12 L 16 16 Z" fill="#003344" stroke="url(#cubeGrad)" stroke-width="1.5"/>
  
  <!-- Left face -->
  <path d="M 8 12 L 8 20 L 16 24 L 16 16 Z" fill="#004455" stroke="url(#cubeGrad)" stroke-width="1.5" filter="url(#glow)"/>
  
  <!-- Right face -->
  <path d="M 16 16 L 16 24 L 24 20 L 24 12 Z" fill="#005566" stroke="url(#cubeGrad)" stroke-width="1.5" filter="url(#glow)"/>
  
  <!-- Scanlines -->
  <line x1="8" y1="14" x2="16" y2="18" stroke="#00ffff" stroke-width="0.3" opacity="0.3"/>
  <line x1="8" y1="16" x2="16" y2="20" stroke="#00ffff" stroke-width="0.3" opacity="0.3"/>
  <line x1="8" y1="18" x2="16" y2="22" stroke="#00ffff" stroke-width="0.3" opacity="0.3"/>
  
  <line x1="16" y1="18" x2="24" y2="14" stroke="#00ffff" stroke-width="0.3" opacity="0.3"/>
  <line x1="16" y1="20" x2="24" y2="16" stroke="#00ffff" stroke-width="0.3" opacity="0.3"/>
  <line x1="16" y1="22" x2="24" y2="18" stroke="#00ffff" stroke-width="0.3" opacity="0.3"/>
  
  <!-- Corner highlights -->
  <circle cx="16" cy="8" r="1" fill="#00ffff" opacity="0.8"/>
  <circle cx="8" cy="12" r="1" fill="#00ffff" opacity="0.6"/>
  <circle cx="24" cy="12" r="1" fill="#00ffff" opacity="0.6"/>
</svg>
