<svg width="32" height="32" viewBox="0 0 32 32" fill="none" xmlns="http://www.w3.org/2000/svg">
  <!-- 1970s Cyberpunk Plane with grid and perspective -->
  <defs>
    <linearGradient id="planeGrad" x1="0%" y1="0%" x2="100%" y2="100%">
      <stop offset="0%" style="stop-color:#8800ff;stop-opacity:1" />
      <stop offset="100%" style="stop-color:#6600cc;stop-opacity:1" />
    </linearGradient>
    <filter id="planeGlow">
      <feGaussianBlur stdDeviation="0.5" result="coloredBlur"/>
      <feMerge>
        <feMergeNode in="coloredBlur"/>
        <feMergeNode in="SourceGraphic"/>
      </feMerge>
    </filter>
  </defs>
  
  <!-- Main plane in perspective -->
  <path d="M 6 20 L 26 20 L 22 10 L 10 10 Z" fill="#220044" stroke="url(#planeGrad)" stroke-width="2" filter="url(#planeGlow)"/>
  
  <!-- Grid lines - horizontal -->
  <line x1="8" y1="13" x2="24" y2="13" stroke="#8800ff" stroke-width="0.6" opacity="0.5"/>
  <line x1="7" y1="16" x2="25" y2="16" stroke="#8800ff" stroke-width="0.6" opacity="0.5"/>
  <line x1="6.5" y1="18" x2="25.5" y2="18" stroke="#8800ff" stroke-width="0.6" opacity="0.5"/>
  
  <!-- Grid lines - vertical (perspective) -->
  <line x1="10" y1="10" x2="8" y2="20" stroke="#8800ff" stroke-width="0.6" opacity="0.5"/>
  <line x1="13" y1="10.5" x2="12" y2="20" stroke="#8800ff" stroke-width="0.5" opacity="0.4"/>
  <line x1="16" y1="11" x2="16" y2="20" stroke="#8800ff" stroke-width="0.5" opacity="0.4"/>
  <line x1="19" y1="10.5" x2="20" y2="20" stroke="#8800ff" stroke-width="0.5" opacity="0.4"/>
  <line x1="22" y1="10" x2="24" y2="20" stroke="#8800ff" stroke-width="0.6" opacity="0.5"/>
  
  <!-- Corner highlights -->
  <circle cx="10" cy="10" r="1.2" fill="#8800ff" opacity="0.8"/>
  <circle cx="22" cy="10" r="1.2" fill="#8800ff" opacity="0.8"/>
  <circle cx="6" cy="20" r="1.2" fill="#8800ff" opacity="0.8"/>
  <circle cx="26" cy="20" r="1.2" fill="#8800ff" opacity="0.8"/>
  
  <!-- Center crosshair -->
  <line x1="14" y1="15" x2="18" y2="15" stroke="#8800ff" stroke-width="1" opacity="0.7"/>
  <line x1="16" y1="13" x2="16" y2="17" stroke="#8800ff" stroke-width="1" opacity="0.7"/>
  <circle cx="16" cy="15" r="0.8" fill="#8800ff" opacity="0.9"/>
  
  <!-- Tech brackets at corners -->
  <path d="M 4 22 L 4 20 L 6 20" stroke="#8800ff" stroke-width="1.2" opacity="0.6" fill="none"/>
  <path d="M 28 22 L 28 20 L 26 20" stroke="#8800ff" stroke-width="1.2" opacity="0.6" fill="none"/>
  <path d="M 8 8 L 10 8 L 10 10" stroke="#8800ff" stroke-width="1.2" opacity="0.6" fill="none"/>
  <path d="M 24 8 L 22 8 L 22 10" stroke="#8800ff" stroke-width="1.2" opacity="0.6" fill="none"/>
</svg>
