<svg width="32" height="32" viewBox="0 0 32 32" fill="none" xmlns="http://www.w3.org/2000/svg">
  <defs>
    <linearGradient id="torusGrad" x1="0%" y1="0%" x2="100%" y2="100%">
      <stop offset="0%" style="stop-color:#ff0066;stop-opacity:1" />
      <stop offset="100%" style="stop-color:#cc0044;stop-opacity:1" />
    </linearGradient>
    <radialGradient id="torusRadial" cx="50%" cy="50%">
      <stop offset="0%" style="stop-color:#220011;stop-opacity:1" />
      <stop offset="100%" style="stop-color:#440022;stop-opacity:1" />
    </radialGradient>
    <filter id="torusGlow">
      <feGaussianBlur stdDeviation="0.8" result="coloredBlur"/>
      <feMerge>
        <feMergeNode in="coloredBlur"/>
        <feMergeNode in="SourceGraphic"/>
      </feMerge>
    </filter>
  </defs>
  <circle cx="16" cy="16" r="11" fill="none" stroke="url(#torusGrad)" stroke-width="1.5" opacity="0.3" filter="url(#torusGlow)"/>
  <circle cx="16" cy="16" r="10" fill="none" stroke="url(#torusGrad)" stroke-width="2.5" filter="url(#torusGlow)"/>
  <circle cx="16" cy="16" r="5.5" fill="url(#torusRadial)" stroke="#ff0066" stroke-width="0.5" opacity="0.5"/>
  <circle cx="16" cy="16" r="6.5" fill="none" stroke="url(#torusGrad)" stroke-width="1.5" opacity="0.7"/>
  <line x1="16" y1="6" x2="16" y2="9" stroke="#ff0066" stroke-width="0.5" opacity="0.5"/>
  <line x1="16" y1="23" x2="16" y2="26" stroke="#ff0066" stroke-width="0.5" opacity="0.5"/>
  <line x1="6" y1="16" x2="9" y2="16" stroke="#ff0066" stroke-width="0.5" opacity="0.5"/>
  <line x1="23" y1="16" x2="26" y2="16" stroke="#ff0066" stroke-width="0.5" opacity="0.5"/>
  <line x1="9.8" y1="9.8" x2="11.9" y2="11.9" stroke="#ff0066" stroke-width="0.4" opacity="0.4"/>
  <line x1="22.2" y1="9.8" x2="20.1" y2="11.9" stroke="#ff0066" stroke-width="0.4" opacity="0.4"/>
  <line x1="9.8" y1="22.2" x2="11.9" y2="20.1" stroke="#ff0066" stroke-width="0.4" opacity="0.4"/>
  <line x1="22.2" y1="22.2" x2="20.1" y2="20.1" stroke="#ff0066" stroke-width="0.4" opacity="0.4"/>
  <circle cx="16" cy="16" r="8" fill="none" stroke="#ff0066" stroke-width="0.3" opacity="0.3" stroke-dasharray="2,2"/>
  <circle cx="16" cy="16" r="9" fill="none" stroke="#ff0066" stroke-width="0.3" opacity="0.3" stroke-dasharray="2,2"/>
  <circle cx="16" cy="16" r="10.5" fill="none" stroke="#ff3388" stroke-width="0.8" opacity="0.4" stroke-dasharray="3,3"/>
  <circle cx="16" cy="16" r="0.8" fill="#ff0066" opacity="0.6"/>
</svg>
