<svg width="32" height="32" viewBox="0 0 32 32" fill="none" xmlns="http://www.w3.org/2000/svg">
  <!-- 1970s Cyberpunk Torus with grid pattern -->
  <defs>
    <linearGradient id="torusGrad" x1="0%" y1="0%" x2="100%" y2="100%">
      <stop offset="0%" style="stop-color:#ff0066;stop-opacity:1" />
      <stop offset="100%" style="stop-color:#cc0044;stop-opacity:1" />
    </linearGradient>
    <filter id="torusGlow">
      <feGaussianBlur stdDeviation="0.7" result="coloredBlur"/>
      <feMerge>
        <feMergeNode in="coloredBlur"/>
        <feMergeNode in="SourceGraphic"/>
      </feMerge>
    </filter>
  </defs>
  
  <!-- Outer ring -->
  <circle cx="16" cy="16" r="11" fill="none" stroke="url(#torusGrad)" stroke-width="5" opacity="0.3" filter="url(#torusGlow)"/>
  
  <!-- Main torus path -->
  <path d="M 16 6 A 10 10 0 0 1 26 16 A 10 10 0 0 1 16 26 A 10 10 0 0 1 6 16 A 10 10 0 0 1 16 6 Z" 
        fill="none" stroke="url(#torusGrad)" stroke-width="4" filter="url(#torusGlow)"/>
  
  <!-- Inner hole -->
  <circle cx="16" cy="16" r="6" fill="#220011" stroke="url(#torusGrad)" stroke-width="1"/>
  
  <!-- Grid lines on torus -->
  <path d="M 12 8 Q 16 10 20 8" fill="none" stroke="#ff0066" stroke-width="0.5" opacity="0.4"/>
  <path d="M 10 12 Q 16 14 22 12" fill="none" stroke="#ff0066" stroke-width="0.5" opacity="0.4"/>
  <path d="M 8 16 Q 16 18 24 16" fill="none" stroke="#ff0066" stroke-width="0.5" opacity="0.4"/>
  <path d="M 10 20 Q 16 22 22 20" fill="none" stroke="#ff0066" stroke-width="0.5" opacity="0.4"/>
  <path d="M 12 24 Q 16 26 20 24" fill="none" stroke="#ff0066" stroke-width="0.5" opacity="0.4"/>
  
  <!-- Vertical grid lines -->
  <path d="M 8 12 Q 10 16 8 20" fill="none" stroke="#ff0066" stroke-width="0.4" opacity="0.3"/>
  <path d="M 12 8 Q 14 16 12 24" fill="none" stroke="#ff0066" stroke-width="0.4" opacity="0.3"/>
  <path d="M 20 8 Q 18 16 20 24" fill="none" stroke="#ff0066" stroke-width="0.4" opacity="0.3"/>
  <path d="M 24 12 Q 22 16 24 20" fill="none" stroke="#ff0066" stroke-width="0.4" opacity="0.3"/>
  
  <!-- Highlight dots -->
  <circle cx="16" cy="6" r="1" fill="#ff0066" opacity="0.8"/>
  <circle cx="26" cy="16" r="1" fill="#ff0066" opacity="0.8"/>
  <circle cx="16" cy="26" r="1" fill="#ff0066" opacity="0.8"/>
  <circle cx="6" cy="16" r="1" fill="#ff0066" opacity="0.8"/>
  
  <!-- Corner tech marks -->
  <line x1="2" y1="16" x2="4" y2="16" stroke="#ff0066" stroke-width="1.5" opacity="0.6"/>
  <line x1="28" y1="16" x2="30" y2="16" stroke="#ff0066" stroke-width="1.5" opacity="0.6"/>
</svg>
